<?xml version="1.0" encoding="iso-8859-1"?>
<!-- Uploaded to: SVG Repo, www.svgrepo.com, Generator: SVG Repo Mixer Tools -->
<svg fill="#000000" height="800px" width="800px" version="1.1" id="Capa_1" xmlns="http://www.w3.org/2000/svg" xmlns:xlink="http://www.w3.org/1999/xlink" 
	 viewBox="0 0 281.447 281.447" xml:space="preserve">
<g>
	<path d="M203.483,49.414H94.022V15.832c0-2.665,2.168-4.832,4.834-4.832c2.665,0,4.834,2.167,4.834,4.832
		c0,3.038,2.462,5.5,5.5,5.5c3.037,0,5.5-2.462,5.5-5.5C114.69,7.102,107.587,0,98.856,0c-8.731,0-15.834,7.102-15.834,15.832v9.834
		h-8.168c-3.038,0-5.5,2.462-5.5,5.5s2.462,5.5,5.5,5.5h8.168v12.748h-4.559c-4.747,0-8.609,3.862-8.609,8.609v97.775
		c0,4.747,3.862,8.609,8.609,8.609c73.683,0,133.629-47.724,133.629-106.385C212.093,53.276,208.23,49.414,203.483,49.414z"/>
	<path d="M128.456,164.598c-16.316,5.662-34.311,8.811-53.215,8.811c-1.291,0-2.51-0.293-3.609-0.805v105.232
		c0,1.994,1.615,3.609,3.609,3.609h66.394c0.006,0.002,0.014,0.002,0.02,0c1.994,0,3.609-1.615,3.609-3.609
		c0-0.262-0.027-0.516-0.08-0.762L128.456,164.598z"/>
</g>
</svg>