<svg width="34" height="34" viewBox="0 0 34 34" fill="none" xmlns="http://www.w3.org/2000/svg">
<g clip-path="url(#clip0_1_640)">
<path d="M30.5843 32.0073V7.57527H25.4324V0L8.56773 4.72847V11.5002H3.41575V32.0073H1.32324V34H32.6768V32.0073H30.5843ZM5.40842 32.0073V13.4929H13.7771V32.0073H5.40842ZM15.7698 32.0073V11.5002H10.5603V6.23932L23.4396 2.62827L23.4108 32.0074H15.7698V32.0073ZM25.4323 32.0073V9.56794H28.5915V32.0073H25.4323Z" fill="white"/>
<path d="M8.59644 16.6396H10.5891V20.6476H8.59644V16.6396Z" fill="white"/>
<path d="M8.59644 23.96H10.5891V27.968H8.59644V23.96Z" fill="white"/>
<path d="M18.2302 16.6396H20.2229V20.6476H18.2302V16.6396Z" fill="white"/>
<path d="M18.2302 9.31982H20.2229V13.3278H18.2302V9.31982Z" fill="white"/>
<path d="M18.2302 23.96H20.2229V27.968H18.2302V23.96Z" fill="white"/>
</g>
<defs>
<clipPath id="clip0_1_640">
<rect width="34" height="34" fill="white"/>
</clipPath>
</defs>
</svg>
