<svg width="27" height="27" viewBox="0 0 27 27" fill="none" xmlns="http://www.w3.org/2000/svg">
<path d="M13.5 0.682617C6.43164 0.682617 0.682617 6.43164 0.682617 13.5C0.682617 20.5684 6.43164 26.3174 13.5 26.3174C20.5684 26.3174 26.3174 20.5684 26.3174 13.5C26.3174 6.43164 20.5684 0.682617 13.5 0.682617ZM13.5 12.2217C15.6191 12.2217 17.3486 13.9443 17.3486 16.0703C17.3486 17.7383 16.2754 19.1465 14.7852 19.6797V21.1973H12.2217V19.6797C10.7314 19.1465 9.6582 17.7383 9.6582 16.0703H12.2217C12.2217 16.7744 12.7959 17.3555 13.5068 17.3555C14.2178 17.3555 14.792 16.7812 14.792 16.0703C14.792 15.3594 14.2178 14.7852 13.5068 14.7852C11.3877 14.7852 9.6582 13.0625 9.6582 10.9365C9.6582 9.26855 10.7314 7.86035 12.2217 7.32715V5.80957H14.7852V7.32715C16.2754 7.86035 17.3486 9.26855 17.3486 10.9365H14.7852C14.7852 10.2324 14.2109 9.65137 13.5 9.65137C12.7891 9.65137 12.2148 10.2256 12.2148 10.9365C12.2148 11.6475 12.7959 12.2217 13.5 12.2217Z" fill="#fff"/>
</svg>
