<svg width="43" height="43" viewBox="0 0 43 43" fill="none" xmlns="http://www.w3.org/2000/svg">
<path d="M35.2734 3.02344H7.72656C6.47922 3.02344 5.28296 3.51894 4.40095 4.40095C3.51894 5.28296 3.02344 6.47922 3.02344 7.72656V35.2734C3.02344 36.5208 3.51894 37.717 4.40095 38.599C5.28296 39.4811 6.47922 39.9766 7.72656 39.9766H21.2203V24.601H18.1452V18.4509H21.1949V15.6715C21.1949 13.156 22.3932 9.22602 27.6666 9.22602L32.4172 9.24508V14.5143H28.9673C28.4064 14.5143 27.6082 14.7937 27.6082 15.9918V18.4513H32.4957L31.9346 24.6015H27.3705V39.9766H35.2734C35.8911 39.9766 36.5026 39.8549 37.0732 39.6186C37.6439 39.3822 38.1623 39.0358 38.599 38.599C39.0358 38.1623 39.3822 37.6439 39.6186 37.0732C39.8549 36.5026 39.9766 35.8911 39.9766 35.2734V7.72656C39.9766 7.10894 39.8549 6.49736 39.6186 5.92675C39.3822 5.35614 39.0358 4.83768 38.599 4.40095C38.1623 3.96423 37.6439 3.6178 37.0732 3.38144C36.5026 3.14509 35.8911 3.02344 35.2734 3.02344Z" fill="#ffccf4"/>
</svg>
