<svg width="46" height="46" viewBox="0 0 46 46" fill="none" xmlns="http://www.w3.org/2000/svg">
<path d="M32.5834 3.8335H13.4167C8.12671 3.8335 3.83337 8.12683 3.83337 13.4168V32.5835C3.83337 37.8735 8.12671 42.1668 13.4167 42.1668H32.5834C37.8734 42.1668 42.1667 37.8735 42.1667 32.5835V13.4168C42.1667 8.12683 37.8734 3.8335 32.5834 3.8335ZM23 32.5835C17.71 32.5835 13.4167 28.2902 13.4167 23.0002C13.4167 17.7102 17.71 13.4168 23 13.4168C28.29 13.4168 32.5834 17.7102 32.5834 23.0002C32.5834 28.2902 28.29 32.5835 23 32.5835ZM33.2542 14.6052C32.2 14.6052 31.3375 13.7427 31.3375 12.6885C31.3375 11.6343 32.2 10.7718 33.2542 10.7718C34.3084 10.7718 35.1709 11.6343 35.1709 12.6885C35.1709 13.7427 34.3084 14.6052 33.2542 14.6052Z" fill="#ffccf4"/>
<path d="M23 28.75C26.1756 28.75 28.75 26.1756 28.75 23C28.75 19.8244 26.1756 17.25 23 17.25C19.8244 17.25 17.25 19.8244 17.25 23C17.25 26.1756 19.8244 28.75 23 28.75Z" fill="#ffccf4"/>
</svg>
