<svg width="38" height="38" viewBox="0 0 38 38" fill="none" xmlns="http://www.w3.org/2000/svg">
<g clip-path="url(#clip0_1_683)">
<path d="M35.2594 0H2.74059C1.22693 0 0 1.22693 0 2.74059V35.2594C0 36.7731 1.22693 38 2.74059 38H35.2594C36.7731 38 38 36.7731 38 35.2594V2.74059C38 1.22693 36.7731 0 35.2594 0ZM13.4788 28.7227H8.85146V14.8011H13.4788V28.7227ZM11.1653 12.9001H11.1351C9.58234 12.9001 8.57806 11.8312 8.57806 10.4953C8.57806 9.1292 9.61307 8.08984 11.196 8.08984C12.779 8.08984 13.7531 9.1292 13.7832 10.4953C13.7832 11.8312 12.779 12.9001 11.1653 12.9001ZM30.1641 28.7227H25.5373V21.275C25.5373 19.4033 24.8673 18.1268 23.1931 18.1268C21.9148 18.1268 21.1535 18.9878 20.8189 19.819C20.6966 20.1165 20.6667 20.5322 20.6667 20.9482V28.7227H16.0397C16.0397 28.7227 16.1003 16.1072 16.0397 14.8011H20.6667V16.7723C21.2816 15.8237 22.3819 14.4744 24.8369 14.4744C27.8813 14.4744 30.1641 16.4641 30.1641 20.7401V28.7227Z" fill="#ffccf4"/>
</g>
<defs>
<clipPath id="clip0_1_683">
<rect width="38" height="38" fill="white"/>
</clipPath>
</defs>
</svg>
