<svg width="19" height="25" viewBox="0 0 19 25" fill="none" xmlns="http://www.w3.org/2000/svg">
<path d="M9.5 0C7.01461 0.00329693 4.63195 0.992076 2.87452 2.74952C1.11708 4.50695 0.128297 6.88961 0.125 9.375C0.125 16.1055 8.85938 24.5352 9.23047 24.8906C9.30265 24.9608 9.39934 25 9.5 25C9.60066 25 9.69735 24.9608 9.76953 24.8906C10.1406 24.5352 18.875 16.1055 18.875 9.375C18.8717 6.88961 17.8829 4.50695 16.1255 2.74952C14.368 0.992076 11.9854 0.00329693 9.5 0ZM9.5 13.6719C8.65016 13.6719 7.8194 13.4199 7.11278 12.9477C6.40617 12.4756 5.85543 11.8045 5.53021 11.0193C5.20499 10.2342 5.11989 9.37023 5.28569 8.53672C5.45148 7.70321 5.86072 6.93758 6.46165 6.33665C7.06258 5.73572 7.82821 5.32648 8.66172 5.16069C9.49523 4.99489 10.3592 5.07998 11.1443 5.40521C11.9295 5.73043 12.6006 6.28117 13.0727 6.98778C13.5449 7.6944 13.7969 8.52516 13.7969 9.375C13.7962 10.5144 13.3433 11.6069 12.5376 12.4126C11.7319 13.2183 10.6394 13.6712 9.5 13.6719Z" fill="#fff"/>
</svg>
