<svg width="72" height="72" viewBox="0 0 72 72" fill="none" xmlns="http://www.w3.org/2000/svg">
<circle opacity="0.9" cx="36" cy="36" r="36" fill="#D9D9D9"/>
<path opacity="0.9" d="M59.6149 11.8851C53.2403 5.5107 44.7649 2 35.75 2C26.7351 2 18.2597 5.5107 11.8851 11.8851C5.5107 18.2597 2 26.7351 2 35.75C2 44.7649 5.5107 53.2403 11.8851 59.6149C18.2597 65.9893 26.7351 69.5 35.75 69.5C44.7649 69.5 53.2403 65.9893 59.6149 59.6149C65.9893 53.2403 69.5 44.7649 69.5 35.75C69.5 26.7351 65.9893 18.2597 59.6149 11.8851ZM35.75 65.3247C19.4424 65.3247 6.17526 52.0576 6.17526 35.75C6.17526 19.4424 19.4424 6.17526 35.75 6.17526C52.0576 6.17526 65.3247 19.4424 65.3247 35.75C65.3247 52.0576 52.0576 65.3247 35.75 65.3247Z" fill="#28201C"/>
<path opacity="0.9" d="M27.1993 48.8426L49.8676 35.7497L27.1993 22.6567V48.8426Z" fill="#28201C"/>
</svg>
