<svg width="36" height="36" viewBox="0 0 36 36" fill="none" xmlns="http://www.w3.org/2000/svg">
<path d="M4 8.32648V15.684C3.9989 23.4854 8.89111 30.61 16.175 33.4116C16.7628 33.6379 17.3813 33.7499 17.9999 33.7499C18.6184 33.7499 19.2369 33.6368 19.8258 33.4116L20.9178 32.9908C27.6503 30.4013 32.0009 23.8886 31.9998 16.4003V8.32648C31.9998 7.72223 31.5219 7.22565 30.9187 7.20258C26.8746 7.04547 22.7515 5.45135 18.6635 2.46637C18.2679 2.17853 17.7318 2.17853 17.3363 2.46637C13.2472 5.45135 9.12402 7.04547 5.08105 7.20258C4.47791 7.22565 4 7.72223 4 8.32648ZM6.25 9.37897C10.1699 9.00873 14.114 7.45746 17.9999 4.75592C21.8846 7.45746 25.8298 9.00873 29.7498 9.37897V16.4003C29.7509 22.9504 25.9672 28.638 20.1093 30.8902L19.0183 31.311C18.3613 31.5637 17.6373 31.5637 16.9825 31.311C10.5621 28.8412 6.2489 22.5615 6.25 15.684V9.37897Z" fill="black"/>
<path d="M15.6962 22.6471C15.9071 22.858 16.1927 22.9767 16.4916 22.9767C16.7904 22.9767 17.076 22.858 17.287 22.6471L24.2842 15.6499C24.7236 15.2104 24.7236 14.4985 24.2842 14.0591C23.8447 13.6196 23.1328 13.6196 22.6934 14.0591L16.4916 20.2609L13.3066 17.0748C12.8672 16.6354 12.1553 16.6354 11.7158 17.0748C11.2764 17.5143 11.2764 18.2262 11.7158 18.6656L15.6962 22.6471Z" fill="black"/>
</svg>
