<svg width="34" height="34" viewBox="0 0 34 34" fill="none" xmlns="http://www.w3.org/2000/svg">
<g clip-path="url(#clip0_1_648)">
<path d="M30.6496 6.02048C30.4664 3.65538 28.4848 1.78662 26.0735 1.78662H4.59146C2.05972 1.78662 0 3.84634 0 6.37808V27.6217C0 30.1535 2.05972 32.2132 4.59146 32.2132H29.4086C31.9403 32.2132 34.0001 30.1535 34.0001 27.6217V10.4401C34 8.33847 32.5801 6.56342 30.6496 6.02048ZM4.59146 3.93154H26.0736C27.2408 3.93154 28.2191 4.75338 28.4618 5.84869H4.59146C3.69254 5.84869 2.85381 6.10936 2.14492 6.55765V6.37808C2.14492 5.02906 3.24244 3.93154 4.59146 3.93154ZM29.4085 30.0683H4.59146C3.24244 30.0683 2.14492 28.9708 2.14492 27.6217V10.4401C2.14492 9.09107 3.24244 7.99354 4.59146 7.99354H29.4086C30.7576 7.99354 31.8552 9.09107 31.8552 10.4401V14.1828H25.0165C22.3065 14.1828 20.1018 16.3876 20.1018 19.0976C20.1018 21.8075 22.3066 24.0123 25.0165 24.0123H31.8551V27.6217C31.8551 28.9708 30.7576 30.0683 29.4085 30.0683ZM31.8551 21.8674H25.0165C23.4892 21.8674 22.2467 20.6249 22.2467 19.0976C22.2467 17.5703 23.4892 16.3277 25.0165 16.3277H31.8551V21.8674Z" fill="#28201C"/>
<path d="M25.4145 20.2956C26.0312 20.2956 26.5311 19.7957 26.5311 19.1791C26.5311 18.5624 26.0312 18.0625 25.4145 18.0625C24.7979 18.0625 24.298 18.5624 24.298 19.1791C24.298 19.7957 24.7979 20.2956 25.4145 20.2956Z" fill="#28201C"/>
</g>
<defs>
<clipPath id="clip0_1_648">
<rect width="34" height="34" fill="white"/>
</clipPath>
</defs>
</svg>
