<svg width="48" height="41" viewBox="0 0 48 41" fill="none" xmlns="http://www.w3.org/2000/svg">
<path d="M45.9366 6.94047C45.2884 4.53069 43.3885 2.63109 40.9791 1.98221C36.5773 0.777832 23.97 0.777832 23.97 0.777832C23.97 0.777832 11.3634 0.777832 6.96165 1.93655C4.59856 2.58474 2.65227 4.53104 2.00407 6.94047C0.845703 11.3419 0.845703 20.4698 0.845703 20.4698C0.845703 20.4698 0.845703 29.6437 2.00407 33.9991C2.65295 36.4086 4.55222 38.3082 6.962 38.957C11.4097 40.1618 23.9707 40.1618 23.9707 40.1618C23.9707 40.1618 36.5773 40.1618 40.9791 39.003C43.3888 38.3545 45.2884 36.4549 45.9373 34.0455C47.0954 29.6437 47.0954 20.5161 47.0954 20.5161C47.0954 20.5161 47.1417 11.3419 45.9366 6.94047ZM18.3642 28.9025V12.0371L33.0056 20.4698L18.3642 28.9025Z" fill="#ffccf4"/>
</svg>
